<?xml version="1.0" encoding="utf-8"?>
<!-- Generator: Adobe Illustrator 26.2.1, SVG Export Plug-In . SVG Version: 6.00 Build 0)  -->
<svg version="1.1" id="レイヤー_3" xmlns="http://www.w3.org/2000/svg" xmlns:xlink="http://www.w3.org/1999/xlink" x="0px"
	 y="0px" viewBox="0 0 961.995 250.079" style="enable-background:new 0 0 961.995 250.079;" xml:space="preserve">
<style type="text/css">
	.st0{fill:none;stroke:#000000;}
</style>
<path class="st0" d="M108.903,108.577c-9.3-3.9-24-7.5-34.8-7.5c-9.6,0-18.3,2.7-18.3,12.9c0,7.2,5.7,11.7,24.6,21.9
	c22.8,12.3,43.8,25.2,43.8,56.701c0,45-33.6,56.701-61.2,56.701c-18.601,0-46.5-4.5-62.401-9.9l11.1-42.301
	c13.8,5.7,34.5,10.5,46.201,10.5c9.6,0,16.5-2.4,16.5-13.2c0-9.3-10.2-15.601-30-25.8c-23.4-12-38.1-24-38.1-52.201
	c0-45.601,39.3-54,67.5-54c14.7,0,37.201,3,47.101,6.3L108.903,108.577z"/>
<polygon class="st0" points="321.901,244.179 261.9,244.179 208.799,160.478 208.799,244.179 158.399,244.179 158.399,7.777 
	208.799,0.577 208.799,155.678 263.1,67.777 320.1,67.777 259.8,154.478 "/>
<path class="st0" d="M433.798,207.578c15.6,0,35.1-3.6,48.3-9l9.3,39.601c-9.899,4.5-33.3,11.4-61.5,11.4
	c-74.401,0-93.001-47.4-93.001-91.501c0-53.1,28.5-96.601,87.9-96.601c53.4,0,68.401,39,68.401,78.9v29.101H386.698
	c1.801,22.2,15.9,38.1,46.801,38.1H433.798z"/>
<path class="st0" d="M419.399,100.178c-21.001,0-31.201,21-31.501,34.2h60c0-18.6-5.101-34.2-28.2-34.2H419.399z"/>
<path class="st0" d="M612.596,206.979v38.1l-20.7,0.9c-32.1,1.5-54.3-10.8-54.3-42.9v-93.301h-25.801v-39h25.801v-37.5l49.2-12.9
	v50.4h32.4v39h-32.4v72.601c0,18.3,2.7,24.601,15,24.601H612.596z"/>
<path class="st0" d="M641.095,156.878c0-46.201,17.7-94.201,91.2-94.201c17.7,0,34.201,3.6,41.401,6.3l-9.001,41.7
	c-9-3.9-22.5-5.7-31.2-5.7c-28.5,0-41.7,18.3-41.7,51.9c0,33.6,15.601,49.8,42.9,49.8c8.4,0,24-2.1,33-6l6.9,42.3
	c-7.2,2.7-24.9,6.6-42.9,6.6c-71.101,0-90.601-45.6-90.601-92.401V156.878z"/>
<path class="st0" d="M902.095,64.177c51.001,0,59.4,32.701,59.4,56.701v123.301h-49.8V133.778c0-19.8-8.4-28.8-25.501-28.8
	c-13.5,0-25.5,6-30.9,13.2v126.001h-50.4V7.777l50.4-7.2v80.401C863.994,72.877,881.095,64.177,902.095,64.177z"/>
</svg>
